<svg xmlns="http://www.w3.org/2000/svg" width="16" height="16" viewBox="0 0 16 16"><path fill-rule="evenodd" d="M5.143 12.57a1.72 1.72 0 0 0-1.714 1.716A1.72 1.72 0 0 0 5.142 16a1.72 1.72 0 0 0 1.714-1.714 1.72 1.72 0 0 0-1.714-1.715zM0 0v1.524h1.6l2.88 5.79-1.12 1.83c-.08.227-.16.532-.16.76 0 .84.72 1.525 1.6 1.525h9.6V9.904H5.12c-.08 0-.16-.076-.16-.153v-.076l.72-1.295h5.92c.64 0 1.12-.304 1.36-.76l2.88-4.953c.16-.153.16-.23.16-.38 0-.458-.32-.763-.8-.763H3.36L2.64 0H0zm13.143 12.57a1.72 1.72 0 0 0-1.714 1.716A1.72 1.72 0 0 0 13.142 16a1.72 1.72 0 0 0 1.714-1.714 1.72 1.72 0 0 0-1.714-1.715z"/></svg>
