<svg xmlns="http://www.w3.org/2000/svg" viewBox="0 0 15 15"><path d="M10.9 3.1c-.5 0-.9.4-.9.9s.4.8.8.8.8-.4.8-.8-.3-.9-.7-.9zM7.5 4.2c-1.8 0-3.3 1.5-3.3 3.3s1.5 3.3 3.3 3.3 3.2-1.5 3.2-3.3-1.5-3.3-3.2-3.3zm0 5.5c-1.2 0-2.2-1-2.2-2.2s1-2.2 2.2-2.2 2.1 1 2.1 2.2-1 2.2-2.1 2.2zM10.2 1H4.6C2.6 1 1 2.6 1 4.6v5.9C1 12.4 2.6 14 4.6 14h5.8c1.9 0 3.6-1.6 3.6-3.6V4.6c-.2-2-1.8-3.6-3.8-3.6zm2.5 9.4c0 1.4-1.1 2.4-2.4 2.4H4.6c-1.3 0-2.4-1.1-2.4-2.4V4.6c0-1.4 1.1-2.4 2.4-2.4h5.8c1.3 0 2.4 1.1 2.4 2.4l-.1 5.8z"/></svg>
